<svg width="269" height="166" viewBox="0 0 269 166" fill="none" xmlns="http://www.w3.org/2000/svg">
<path d="M3.888 7V5.506H0.567L0.387 4.993L3.951 0.655H4.572V4.912H5.553V5.506H4.572V7H3.888ZM1.242 4.912H3.888V1.663L1.242 4.912ZM11.1771 6.163C10.6851 6.793 10.0431 7.108 9.25109 7.108C8.45909 7.108 7.81709 6.796 7.32509 6.172C6.83909 5.542 6.59609 4.768 6.59609 3.85C6.59609 2.944 6.84209 2.176 7.33409 1.546C7.83209 0.91 8.47709 0.592 9.26909 0.592C10.0611 0.592 10.7001 0.907 11.1861 1.537C11.6721 2.161 11.9151 2.932 11.9151 3.85C11.9151 4.756 11.6691 5.527 11.1771 6.163ZM7.87409 5.695C8.23409 6.205 8.69909 6.46 9.26909 6.46C9.83909 6.46 10.2981 6.208 10.6461 5.704C11.0001 5.194 11.1771 4.576 11.1771 3.85C11.1771 3.136 10.9971 2.524 10.6371 2.014C10.2831 1.498 9.82109 1.24 9.25109 1.24C8.68109 1.24 8.21909 1.495 7.86509 2.005C7.51109 2.509 7.33409 3.124 7.33409 3.85C7.33409 4.564 7.51409 5.179 7.87409 5.695ZM17.6107 6.163C17.1187 6.793 16.4767 7.108 15.6847 7.108C14.8927 7.108 14.2507 6.796 13.7587 6.172C13.2727 5.542 13.0297 4.768 13.0297 3.85C13.0297 2.944 13.2757 2.176 13.7677 1.546C14.2657 0.91 14.9107 0.592 15.7027 0.592C16.4947 0.592 17.1337 0.907 17.6197 1.537C18.1057 2.161 18.3487 2.932 18.3487 3.85C18.3487 4.756 18.1027 5.527 17.6107 6.163ZM14.3077 5.695C14.6677 6.205 15.1327 6.46 15.7027 6.46C16.2727 6.46 16.7317 6.208 17.0797 5.704C17.4337 5.194 17.6107 4.576 17.6107 3.85C17.6107 3.136 17.4307 2.524 17.0707 2.014C16.7167 1.498 16.2547 1.24 15.6847 1.24C15.1147 1.24 14.6527 1.495 14.2987 2.005C13.9447 2.509 13.7677 3.124 13.7677 3.85C13.7677 4.564 13.9477 5.179 14.3077 5.695Z" fill="#878E9C"/>
<path d="M2.799 43.108C1.809 43.108 1.026 42.733 0.45 41.983L0.963 41.524C1.473 42.148 2.088 42.46 2.808 42.46C3.198 42.46 3.525 42.346 3.789 42.118C4.053 41.89 4.185 41.59 4.185 41.218C4.185 40.834 4.023 40.537 3.699 40.327C3.375 40.111 2.949 40.003 2.421 40.003H2.016L1.872 39.58L3.861 37.339H0.783V36.7H4.806V37.222L2.826 39.418C3.426 39.466 3.921 39.64 4.311 39.94C4.707 40.234 4.905 40.657 4.905 41.209C4.905 41.761 4.701 42.217 4.293 42.577C3.891 42.931 3.393 43.108 2.799 43.108ZM10.6585 42.163C10.1665 42.793 9.52453 43.108 8.73253 43.108C7.94053 43.108 7.29853 42.796 6.80653 42.172C6.32053 41.542 6.07753 40.768 6.07753 39.85C6.07753 38.944 6.32353 38.176 6.81553 37.546C7.31353 36.91 7.95853 36.592 8.75053 36.592C9.54253 36.592 10.1815 36.907 10.6675 37.537C11.1535 38.161 11.3965 38.932 11.3965 39.85C11.3965 40.756 11.1505 41.527 10.6585 42.163ZM7.35553 41.695C7.71553 42.205 8.18053 42.46 8.75053 42.46C9.32053 42.46 9.77953 42.208 10.1275 41.704C10.4815 41.194 10.6585 40.576 10.6585 39.85C10.6585 39.136 10.4785 38.524 10.1185 38.014C9.76453 37.498 9.30253 37.24 8.73253 37.24C8.16253 37.24 7.70053 37.495 7.34653 38.005C6.99253 38.509 6.81553 39.124 6.81553 39.85C6.81553 40.564 6.99553 41.179 7.35553 41.695ZM17.0921 42.163C16.6001 42.793 15.9581 43.108 15.1661 43.108C14.3741 43.108 13.7321 42.796 13.2401 42.172C12.7541 41.542 12.5111 40.768 12.5111 39.85C12.5111 38.944 12.7571 38.176 13.2491 37.546C13.7471 36.91 14.3921 36.592 15.1841 36.592C15.9761 36.592 16.6151 36.907 17.1011 37.537C17.5871 38.161 17.8301 38.932 17.8301 39.85C17.8301 40.756 17.5841 41.527 17.0921 42.163ZM13.7891 41.695C14.1491 42.205 14.6141 42.46 15.1841 42.46C15.7541 42.46 16.2131 42.208 16.5611 41.704C16.9151 41.194 17.0921 40.576 17.0921 39.85C17.0921 39.136 16.9121 38.524 16.5521 38.014C16.1981 37.498 15.7361 37.24 15.1661 37.24C14.5961 37.24 14.1341 37.495 13.7801 38.005C13.4261 38.509 13.2491 39.124 13.2491 39.85C13.2491 40.564 13.4291 41.179 13.7891 41.695Z" fill="#878E9C"/>
<path d="M0.432 86V85.451L2.718 83.435C3.21 83.003 3.552 82.643 3.744 82.355C3.936 82.067 4.032 81.767 4.032 81.455C4.032 81.095 3.909 80.804 3.663 80.582C3.417 80.36 3.117 80.249 2.763 80.249C2.421 80.249 2.118 80.336 1.854 80.51C1.596 80.684 1.335 80.957 1.071 81.329L0.549 80.951C0.855 80.495 1.179 80.159 1.521 79.943C1.863 79.721 2.295 79.61 2.817 79.61C3.381 79.61 3.846 79.781 4.212 80.123C4.584 80.459 4.77 80.888 4.77 81.41C4.77 81.842 4.653 82.226 4.419 82.562C4.185 82.898 3.771 83.33 3.177 83.858L1.494 85.352H4.833V86H0.432ZM10.5267 85.163C10.0347 85.793 9.3927 86.108 8.6007 86.108C7.8087 86.108 7.1667 85.796 6.6747 85.172C6.1887 84.542 5.9457 83.768 5.9457 82.85C5.9457 81.944 6.1917 81.176 6.6837 80.546C7.1817 79.91 7.8267 79.592 8.6187 79.592C9.4107 79.592 10.0497 79.907 10.5357 80.537C11.0217 81.161 11.2647 81.932 11.2647 82.85C11.2647 83.756 11.0187 84.527 10.5267 85.163ZM7.2237 84.695C7.5837 85.205 8.0487 85.46 8.6187 85.46C9.1887 85.46 9.6477 85.208 9.9957 84.704C10.3497 84.194 10.5267 83.576 10.5267 82.85C10.5267 82.136 10.3467 81.524 9.9867 81.014C9.6327 80.498 9.1707 80.24 8.6007 80.24C8.0307 80.24 7.5687 80.495 7.2147 81.005C6.8607 81.509 6.6837 82.124 6.6837 82.85C6.6837 83.564 6.8637 84.179 7.2237 84.695ZM16.9603 85.163C16.4683 85.793 15.8263 86.108 15.0343 86.108C14.2423 86.108 13.6003 85.796 13.1083 85.172C12.6223 84.542 12.3793 83.768 12.3793 82.85C12.3793 81.944 12.6253 81.176 13.1173 80.546C13.6153 79.91 14.2603 79.592 15.0523 79.592C15.8443 79.592 16.4833 79.907 16.9693 80.537C17.4553 81.161 17.6983 81.932 17.6983 82.85C17.6983 83.756 17.4523 84.527 16.9603 85.163ZM13.6573 84.695C14.0173 85.205 14.4823 85.46 15.0523 85.46C15.6223 85.46 16.0813 85.208 16.4293 84.704C16.7833 84.194 16.9603 83.576 16.9603 82.85C16.9603 82.136 16.7803 81.524 16.4203 81.014C16.0663 80.498 15.6043 80.24 15.0343 80.24C14.4643 80.24 14.0023 80.495 13.6483 81.005C13.2943 81.509 13.1173 82.124 13.1173 82.85C13.1173 83.564 13.2973 84.179 13.6573 84.695Z" fill="#878E9C"/>
<path d="M1.611 126V120.393L0.423 120.762L0.252 120.186L1.791 119.655H2.313V126H1.611ZM8.36459 125.163C7.87259 125.793 7.23059 126.108 6.43859 126.108C5.64659 126.108 5.00459 125.796 4.51259 125.172C4.02659 124.542 3.78359 123.768 3.78359 122.85C3.78359 121.944 4.02959 121.176 4.52159 120.546C5.01959 119.91 5.66459 119.592 6.45659 119.592C7.24859 119.592 7.88759 119.907 8.37359 120.537C8.85959 121.161 9.10259 121.932 9.10259 122.85C9.10259 123.756 8.85659 124.527 8.36459 125.163ZM5.06159 124.695C5.42159 125.205 5.88659 125.46 6.45659 125.46C7.02659 125.46 7.48559 125.208 7.83359 124.704C8.18759 124.194 8.36459 123.576 8.36459 122.85C8.36459 122.136 8.18459 121.524 7.82459 121.014C7.47059 120.498 7.00859 120.24 6.43859 120.24C5.86859 120.24 5.40659 120.495 5.05259 121.005C4.69859 121.509 4.52159 122.124 4.52159 122.85C4.52159 123.564 4.70159 124.179 5.06159 124.695ZM14.7982 125.163C14.3062 125.793 13.6642 126.108 12.8722 126.108C12.0802 126.108 11.4382 125.796 10.9462 125.172C10.4602 124.542 10.2172 123.768 10.2172 122.85C10.2172 121.944 10.4632 121.176 10.9552 120.546C11.4532 119.91 12.0982 119.592 12.8902 119.592C13.6822 119.592 14.3212 119.907 14.8072 120.537C15.2932 121.161 15.5362 121.932 15.5362 122.85C15.5362 123.756 15.2902 124.527 14.7982 125.163ZM11.4952 124.695C11.8552 125.205 12.3202 125.46 12.8902 125.46C13.4602 125.46 13.9192 125.208 14.2672 124.704C14.6212 124.194 14.7982 123.576 14.7982 122.85C14.7982 122.136 14.6182 121.524 14.2582 121.014C13.9042 120.498 13.4422 120.24 12.8722 120.24C12.3022 120.24 11.8402 120.495 11.4862 121.005C11.1322 121.509 10.9552 122.124 10.9552 122.85C10.9552 123.564 11.1352 124.179 11.4952 124.695Z" fill="#878E9C"/>
<rect x="31.5" y="2.5" width="237" height="163" stroke="#E6EBF0"/>
<line x1="31" y1="42.5" x2="269" y2="42.5" stroke="#E6EBF0"/>
<line x1="65.5" y1="166" x2="65.5" y2="2" stroke="#E6EBF0"/>
<line x1="99.5" y1="166" x2="99.5" y2="2" stroke="#E6EBF0"/>
<line x1="133.5" y1="166" x2="133.5" y2="2" stroke="#E6EBF0"/>
<line x1="167.5" y1="166" x2="167.5" y2="2" stroke="#E6EBF0"/>
<line x1="202.5" y1="166" x2="202.5" y2="2" stroke="#E6EBF0"/>
<line x1="268.5" y1="166" x2="268.5" y2="2" stroke="#E6EBF0"/>
<line x1="233.5" y1="166" x2="233.5" y2="2" stroke="#E6EBF0"/>
<line x1="31" y1="85.5" x2="269" y2="85.5" stroke="#E6EBF0"/>
<line x1="31" y1="126.5" x2="269" y2="126.5" stroke="#E6EBF0"/>
<path d="M31 146.5C37.8333 132.833 56.6 99.3998 91 90.9998C134 80.4998 167 110.5 196 81.9998C225 53.4998 217 10.4998 268 12.9998" stroke="#FFD02C" stroke-width="5"/>
</svg>
